<svg xmlns="http://www.w3.org/2000/svg" xmlns:xlink="http://www.w3.org/1999/xlink" width="336" zoomAndPan="magnify" viewBox="0 0 252 143.999998" height="192" preserveAspectRatio="xMidYMid meet" version="1.0"><defs><g/><clipPath id="2bc89d2eba"><rect x="0" width="215" y="0" height="117"/></clipPath></defs><rect x="-25.2" width="302.4" fill="#ffffff" y="-14.4" height="172.799997" fill-opacity="1"/><rect x="-25.2" width="302.4" fill="#ffffff" y="-14.4" height="172.799997" fill-opacity="1"/><g transform="matrix(1, 0, 0, 1, 22, 14)"><g clip-path="url(#2bc89d2eba)"><g fill="#000000" fill-opacity="0.4196"><g transform="translate(10.091615, 87.901779)"><g><path d="M 5.53125 -43.8125 L 55.984375 -64.28125 L 55.984375 -51.1875 L 22.96875 -38.28125 L 55.984375 -25.546875 L 55.984375 -12.453125 L 5.53125 -32.921875 Z M 5.53125 -43.8125 "/></g></g></g><g fill="#000000" fill-opacity="0.4196"><g transform="translate(78.992296, 87.901779)"><g><path d="M 5.53125 -76.09375 L 32.75 -76.09375 C 40.0625 -76.09375 46.019531 -74.140625 50.625 -70.234375 C 55.238281 -66.328125 57.546875 -60.75 57.546875 -53.5 C 57.546875 -47.90625 56.144531 -43.210938 53.34375 -39.421875 C 50.550781 -35.640625 46.757812 -32.984375 41.96875 -31.453125 L 68.15625 0 L 46.109375 0 L 22.875 -30.0625 L 22.875 0 L 5.53125 0 Z M 22.875 -42.328125 L 24.90625 -42.328125 C 26.5 -42.328125 27.847656 -42.359375 28.953125 -42.421875 C 30.066406 -42.484375 31.328125 -42.695312 32.734375 -43.0625 C 34.148438 -43.4375 35.289062 -43.960938 36.15625 -44.640625 C 37.019531 -45.316406 37.757812 -46.300781 38.375 -47.59375 C 38.988281 -48.882812 39.296875 -50.453125 39.296875 -52.296875 C 39.296875 -54.140625 38.988281 -55.707031 38.375 -57 C 37.757812 -58.289062 37.019531 -59.273438 36.15625 -59.953125 C 35.289062 -60.628906 34.148438 -61.148438 32.734375 -61.515625 C 31.328125 -61.890625 30.066406 -62.109375 28.953125 -62.171875 C 27.847656 -62.234375 26.5 -62.265625 24.90625 -62.265625 L 22.875 -62.265625 Z M 22.875 -42.328125 "/></g></g></g><g fill="#000000" fill-opacity="0.4196"><g transform="translate(152.873656, 87.901779)"><g><path d="M 5.078125 -25.546875 L 38.09375 -38.28125 L 5.078125 -51.1875 L 5.078125 -64.28125 L 55.53125 -43.8125 L 55.53125 -32.921875 L 5.078125 -12.453125 Z M 5.078125 -25.546875 "/></g></g></g><g fill="#000000" fill-opacity="1"><g transform="translate(2.255061, 82.208189)"><g><path d="M 5.53125 -43.8125 L 55.984375 -64.28125 L 55.984375 -51.1875 L 22.96875 -38.28125 L 55.984375 -25.546875 L 55.984375 -12.453125 L 5.53125 -32.921875 Z M 5.53125 -43.8125 "/></g></g></g><g fill="#000000" fill-opacity="1"><g transform="translate(71.155741, 82.208189)"><g><path d="M 5.53125 -76.09375 L 32.75 -76.09375 C 40.0625 -76.09375 46.019531 -74.140625 50.625 -70.234375 C 55.238281 -66.328125 57.546875 -60.75 57.546875 -53.5 C 57.546875 -47.90625 56.144531 -43.210938 53.34375 -39.421875 C 50.550781 -35.640625 46.757812 -32.984375 41.96875 -31.453125 L 68.15625 0 L 46.109375 0 L 22.875 -30.0625 L 22.875 0 L 5.53125 0 Z M 22.875 -42.328125 L 24.90625 -42.328125 C 26.5 -42.328125 27.847656 -42.359375 28.953125 -42.421875 C 30.066406 -42.484375 31.328125 -42.695312 32.734375 -43.0625 C 34.148438 -43.4375 35.289062 -43.960938 36.15625 -44.640625 C 37.019531 -45.316406 37.757812 -46.300781 38.375 -47.59375 C 38.988281 -48.882812 39.296875 -50.453125 39.296875 -52.296875 C 39.296875 -54.140625 38.988281 -55.707031 38.375 -57 C 37.757812 -58.289062 37.019531 -59.273438 36.15625 -59.953125 C 35.289062 -60.628906 34.148438 -61.148438 32.734375 -61.515625 C 31.328125 -61.890625 30.066406 -62.109375 28.953125 -62.171875 C 27.847656 -62.234375 26.5 -62.265625 24.90625 -62.265625 L 22.875 -62.265625 Z M 22.875 -42.328125 "/></g></g></g><g fill="#000000" fill-opacity="1"><g transform="translate(145.037101, 82.208189)"><g><path d="M 5.078125 -25.546875 L 38.09375 -38.28125 L 5.078125 -51.1875 L 5.078125 -64.28125 L 55.53125 -43.8125 L 55.53125 -32.921875 L 5.078125 -12.453125 Z M 5.078125 -25.546875 "/></g></g></g></g></g></svg>